<svg id="Calque_1" data-name="Calque 1" xmlns="http://www.w3.org/2000/svg" xmlns:xlink="http://www.w3.org/1999/xlink" viewBox="0 0 5968.09 3815.91"><defs><style>.cls-1,.cls-2,.cls-3,.cls-4{stroke:#1d1d1b;stroke-miterlimit:10;}.cls-1,.cls-2,.cls-3{stroke-width:19px;}.cls-1{fill:url(#Dégradé_sans_nom_15);}.cls-2,.cls-4{fill:none;}.cls-3{fill:url(#Dégradé_sans_nom_15-2);}.cls-4{stroke-width:4px;}</style><linearGradient id="Dégradé_sans_nom_15" x1="-2733.83" y1="-230.44" x2="-2733.83" y2="1473.14" gradientUnits="userSpaceOnUse"><stop offset="0.09" stop-color="#fafafa"/><stop offset="0.15" stop-color="#f8e6ec"/><stop offset="0.46" stop-color="#f18bac"/><stop offset="0.71" stop-color="#eb487d"/><stop offset="0.89" stop-color="#e71e60"/><stop offset="0.99" stop-color="#e60e55"/></linearGradient><linearGradient id="Dégradé_sans_nom_15-2" x1="-3545.72" y1="325.68" x2="-3545.72" y2="1313.42" xlink:href="#Dégradé_sans_nom_15"/></defs><title>dessin</title><path class="cls-1" d="M-2706.83,1227.43s-101.57-173.57-190.28-459c-77.27-248.62-104.14-489.86-104.14-489.86s60.42,105.67,104.14,204.43,46.28,77.14,46.28,77.14,33.43-369.67,87.43-673S-2694-476.14-2694-476.14s7.72,162.24,38.57,338.6,46.29,444.41,43.72,490.26,90-239.84,100.28-310.38,42.36-179.69,41.15-204.57c-2.58-52.91,20.57,455-23.15,740.68S-2706.83,1227.43-2706.83,1227.43Z" transform="translate(4562.92 539.52)"/><path class="cls-2" d="M-2542.83,1327.57c244-558.35,446.17-720,595.26-920.09-63.1,215.88-155.33,376.74-155.33,376.74s456.44-407.81,840.16-580.8c-174,130.7-324.15,416.47-563.89,613,217.68-52.79,253.91-57.91,547.54-225.25C-1448.1,807.27-2125.24,1228.22-2542.83,1327.57Z" transform="translate(4562.92 539.52)"/><path class="cls-2" d="M-2582.57,1548.49s176.3,96.75,399,296.08c194,173.63,341,366.81,341,366.81s-106.13-59.63-194.36-121.91-79.34-42.41-79.34-42.41,161.2,334.35,270.67,622.34,127,347.36,127,347.36-90-135.24-207-270.7-268-357.54-289.32-398.2,46,252,73.38,317.82,56,175.93,69.77,196.66c29.38,44.07-251.35-379.82-360.59-647.4S-2582.57,1548.49-2582.57,1548.49Z" transform="translate(4562.92 539.52)"/><path class="cls-2" d="M-2739.34,1562.82s58.23,192.49,77.84,490.75c17.08,259.78-13.13,500.63-13.13,500.63s-34.08-116.86-53.53-223.1-27-85.82-27-85.82-118.83,351.65-242.17,634-152.35,337-152.35,337,30.39-159.56,41.57-338.25,58.77-442.93,72-486.91-143.52,212.19-170,278.38-83.15,164.83-87.78,189.3c-9.85,52.05,86.25-447.21,195.47-714.79S-2739.34,1562.82-2739.34,1562.82Z" transform="translate(4562.92 539.52)"/><path class="cls-3" d="M-2849.14,1313.42s-200.53-15.33-485.68-104.91c-248.38-78-462-193.3-462-193.3s121.28,10.49,227.35,30.78,89.78,5.87,89.78,5.87-284.87-238-503.48-455.06-259.12-263.92-259.12-263.92,137.77,86,300.32,161.08,391.69,215,427.92,243.2S-3660,526.62-3712.11,478s-123.6-137.13-144.75-150.3c-44.95-28,385.76,242.15,595.73,440.75S-2849.14,1313.42-2849.14,1313.42Z" transform="translate(4562.92 539.52)"/><path class="cls-2" d="M-2853.58,1468.36s-140.59,143.79-392.46,304.73c-219.39,140.18-445,229.79-445,229.79s86-86.18,169.68-154.42,62.18-65,62.18-65-365.38,65.37-672.2,93.38-368.72,29-368.72,29,154.45-50.28,316.39-126.61,416.42-162,461.32-171.62-255.09-23.48-325.84-14.77-184.5,6.6-208.18,14.33c-50.35,16.46,433.41-140,720.51-173.25S-2853.58,1468.36-2853.58,1468.36Z" transform="translate(4562.92 539.52)"/><path class="cls-4" d="M109.46,1200c244-558.35,446.16-720,595.26-920.09-63.1,215.88-155.33,376.74-155.33,376.74s456.44-407.81,840.15-580.8c-174,130.7-324.15,416.47-563.89,613,217.68-52.79,253.92-57.92,547.54-225.25C1204.18,679.7,527,1100.65,109.46,1200Z" transform="translate(4562.92 539.52)"/><path class="cls-2" d="M-2523.67,1426c567.52-221.84,824.73-193,1071.69-228.84-197.35,107.87-376.35,156.26-376.35,156.26s611.09,34.86,1004.62,184.18c-215.4-30.76-523.75,64.87-832.24,34.1,191.17,116.74,220.39,138.76,546.27,228.32C-1382,1833-2158.32,1651.28-2523.67,1426Z" transform="translate(4562.92 539.52)"/></svg>